<svg xmlns="http://www.w3.org/2000/svg" xml:space="preserve" style="enable-background:new 0 0 500 500" viewBox="0 0 500 500"><g style="opacity:.61"><path d="m213.765 461.172-5.561 12.845h-2.936l-5.542-12.845h3.212l3.908 9.175 3.964-9.175z" style="fill:#fff"/><path d="M223.507 469.741h-7.469c.275 1.23 1.321 1.982 2.826 1.982 1.046 0 1.798-.312 2.477-.954l1.523 1.651c-.917 1.046-2.294 1.597-4.074 1.597-3.413 0-5.634-2.147-5.634-5.083 0-2.954 2.257-5.083 5.267-5.083 2.899 0 5.138 1.945 5.138 5.12.001.22-.035.532-.054.77m-7.505-1.67h4.863c-.202-1.248-1.138-2.055-2.422-2.055-1.304 0-2.239.789-2.441 2.055" style="fill:#fff"/><path d="M224.735 468.934c0-2.973 2.294-5.083 5.505-5.083 2.074 0 3.707.899 4.423 2.514l-2.22 1.193c-.532-.936-1.321-1.358-2.221-1.358-1.45 0-2.587 1.009-2.587 2.734s1.138 2.734 2.587 2.734c.899 0 1.688-.404 2.221-1.358l2.22 1.211c-.716 1.578-2.349 2.495-4.423 2.495-3.211.001-5.505-2.109-5.505-5.082" style="fill:#fff"/><path d="M242.828 473.393c-.587.422-1.45.624-2.331.624-2.33 0-3.688-1.193-3.688-3.542v-4.055h-1.523v-2.202h1.523v-2.404h2.863v2.404h2.459v2.202h-2.459v4.019c0 .844.458 1.303 1.229 1.303.422 0 .844-.128 1.156-.367l.771 2.018z" style="fill:#fff"/><path d="M262.474 463.997v2.643c-.238-.018-.422-.037-.642-.037-1.578 0-2.624.862-2.624 2.753v4.661h-2.863v-9.873h2.734v1.303c.697-.954 1.872-1.45 3.395-1.45" style="fill:#fff"/><path d="m263.299 472.53 1.009-2.239c1.083.789 2.697 1.339 4.239 1.339 1.762 0 2.477-.587 2.477-1.376 0-2.404-7.469-.752-7.469-5.524 0-2.184 1.762-4 5.413-4 1.615 0 3.267.385 4.459 1.138l-.918 2.257c-1.193-.679-2.422-1.009-3.56-1.009-1.761 0-2.44.66-2.44 1.468 0 2.367 7.468.734 7.468 5.45 0 2.147-1.78 3.982-5.45 3.982-2.035.001-4.09-.605-5.228-1.486" style="fill:#fff"/><path d="M285.428 469.741h-7.469c.275 1.23 1.321 1.982 2.826 1.982 1.046 0 1.798-.312 2.477-.954l1.523 1.651c-.918 1.046-2.294 1.597-4.074 1.597-3.413 0-5.634-2.147-5.634-5.083 0-2.954 2.257-5.083 5.267-5.083 2.9 0 5.138 1.945 5.138 5.12.002.22-.035.532-.054.77m-7.505-1.67h4.863c-.202-1.248-1.138-2.055-2.422-2.055-1.303 0-2.239.789-2.441 2.055" style="fill:#fff"/><path d="M297.007 469.741h-7.469c.275 1.23 1.321 1.982 2.826 1.982 1.046 0 1.798-.312 2.477-.954l1.523 1.651c-.918 1.046-2.294 1.597-4.074 1.597-3.413 0-5.634-2.147-5.634-5.083 0-2.954 2.257-5.083 5.267-5.083 2.899 0 5.138 1.945 5.138 5.12.001.22-.036.532-.054.77m-7.506-1.67h4.863c-.202-1.248-1.138-2.055-2.422-2.055-1.303 0-2.239.789-2.441 2.055" style="fill:#fff"/><path d="m303.208 470.145-1.377 1.358v2.514h-2.862v-13.616h2.862v7.707l4.185-3.964h3.413l-4.111 4.184 4.478 5.689h-3.469z" style="fill:#fff"/><path d="m256.601 475.359-2.86-2.86a6.057 6.057 0 0 1-1.534 1.284 5.127 5.127 0 0 1-.283.199l3.027 3.027a1.166 1.166 0 1 0 1.65-1.65" style="fill:#fff"/><path d="M249.984 463.244a1.288 1.288 0 0 1 .921-.275 1.285 1.285 0 0 0-1.745.209c-.051 0-.1.006-.151.008a.56.56 0 0 0 .064-.255.563.563 0 0 0-.346-.519.78.78 0 0 1 .057.786 5.417 5.417 0 0 0 .39 10.82 5.42 5.42 0 0 0 5.42-5.42 5.414 5.414 0 0 0-4.61-5.354m-2.001 1.412c.435 0 .844.112 1.199.309a2.372 2.372 0 0 1 3.083.419 2.47 2.47 0 0 0-3.09-.131 2.46 2.46 0 0 0-1.464-.478c-.3 0-.588.054-.854.152a2.469 2.469 0 0 1 1.126-.271m3.789 4.442c.115.305.181.634.181.979a2.777 2.777 0 0 1-5.555 0c0-.345.066-.674.181-.979a2.165 2.165 0 0 1 1.133-4.014c.565 0 1.078.218 1.463.572a2.159 2.159 0 0 1 1.464-.572 2.165 2.165 0 0 1 1.133 4.014" style="fill:#fff"/><path d="M251.666 467.061a.902.902 0 1 1-.614-.854.494.494 0 0 0 .595.676.809.809 0 0 1 .019.178" style="fill:#fff"/><path d="M248.255 467.061a.681.681 0 1 1-.464-.646.374.374 0 0 0 .45.512.655.655 0 0 1 .014.134" style="fill:#fff"/><path d="M242.908 467.83h.616v.616h-.616z" style="fill:#fff"/><path d="M254.827 467.83h.616v.616h-.616z" style="fill:#fff"/><path d="M255.205 468.082h-.14a5.896 5.896 0 0 0-5.89-5.89 5.896 5.896 0 0 0-5.89 5.89h-.14a5.99 5.99 0 0 1 1.766-4.264 5.99 5.99 0 0 1 4.264-1.766 5.99 5.99 0 0 1 4.264 1.766 5.99 5.99 0 0 1 1.766 4.264" style="fill:#fff"/><path d="M248.868 461.814h.616v.616h-.616z" style="fill:#fff"/><path d="M244.95 462.052h8.45v.14h-8.45z" style="fill:#fff"/><path d="M245.174 462.15a.196.196 0 1 1-.393 0 .196.196 0 0 1 .393 0" style="fill:#fff"/><path d="M253.596 462.15a.196.196 0 1 1-.393 0 .196.196 0 0 1 .393 0" style="fill:#fff"/><path d="M314.356 473.409c0 1.559-2.364 1.559-2.364 0 .001-1.558 2.364-1.558 2.364 0z" style="fill:#fff"/><path d="m161.739 466.549 1.772 6.088 1.855-6.088h2.215l-2.823 8.14h-2.33l-.837-2.396-.722-2.708-.722 2.708-.837 2.396h-2.33l-2.839-8.14h2.231l1.855 6.088 1.756-6.088h1.756z" style="fill:#fff"/><path d="m176.713 466.549 1.772 6.088 1.855-6.088h2.215l-2.823 8.14h-2.33l-.837-2.396-.722-2.708-.722 2.708-.837 2.396h-2.33l-2.839-8.14h2.231l1.855 6.088 1.756-6.088h1.756z" style="fill:#fff"/><path d="m191.687 466.549 1.772 6.088 1.855-6.088h2.215l-2.823 8.14h-2.33l-.837-2.396-.722-2.708-.722 2.708-.837 2.396h-2.33l-2.839-8.14h2.231l1.855 6.088 1.756-6.088h1.756z" style="fill:#fff"/><path d="M200.908 473.52c0 1.559-2.364 1.559-2.364 0 .001-1.558 2.364-1.558 2.364 0z" style="fill:#fff"/><path d="M322.71 473.409c-.935.919-1.919 1.28-3.117 1.28-2.346 0-4.3-1.411-4.3-4.282s1.953-4.284 4.3-4.284c1.149 0 2.035.329 2.921 1.199l-1.264 1.329a2.449 2.449 0 0 0-1.623-.64c-1.346 0-2.33.985-2.33 2.396 0 1.542 1.05 2.362 2.297 2.362.64 0 1.28-.18 1.772-.672l1.344 1.312z" style="fill:#fff"/><path d="M331.805 470.472c0 2.33-1.591 4.217-4.217 4.217-2.626 0-4.201-1.887-4.201-4.217 0-2.314 1.609-4.217 4.185-4.217 2.577 0 4.233 1.903 4.233 4.217zm-6.416 0c0 1.231.739 2.38 2.199 2.38s2.199-1.149 2.199-2.38c0-1.215-.854-2.396-2.199-2.396-1.444.001-2.199 1.182-2.199 2.396z" style="fill:#fff"/><path d="M338.572 474.689v-4.332c0-1.068-.559-2.035-1.658-2.035-1.082 0-1.722.967-1.722 2.035v4.332h-2.003v-8.107h1.855l.148.985c.426-.82 1.362-1.116 2.133-1.116.969 0 1.937.394 2.396 1.51.723-1.149 1.658-1.478 2.708-1.478 2.297 0 3.43 1.412 3.43 3.84v4.365h-2.003v-4.365c0-1.066-.442-1.97-1.526-1.97-1.082 0-1.756.935-1.756 2.003v4.332h-2.002z" style="fill:#fff"/></g><g style="opacity:.61"><path d="M345.988 431.299c-.006-1.224-.959-2.121-2.189-2.14-.924-.014-.832.12-.834-.867-.003-1.097-.007-2.194.003-3.292a1.389 1.389 0 0 0-.362-.976c-2.342-2.668-4.678-5.342-7.019-8.011-.12-.137-.275-.244-.414-.366h-18.641c-.794.293-1.14.868-1.138 1.709.01 3.748.004 7.496.004 11.243 0 .556-.003.589-.55.551-1.497-.102-2.516.986-2.497 2.492.044 3.476.013 6.953.014 10.429.001 1.58.867 2.443 2.45 2.449.582.002.582.002.582.6 0 2.219-.001 4.438.001 6.657.001 1.192.58 1.771 1.768 1.771h24.04c1.168 0 1.755-.583 1.757-1.745.002-2.256 0-4.512.001-6.768 0-.512.002-.511.52-.515.271-.002.541.008.809-.058.996-.246 1.69-1.044 1.694-2.069.016-3.697.018-7.396.001-11.094zm-28.451-14.137h16.01c.548 0 .554.007.554.561.001 2.243-.001 4.486.001 6.73.001.811.249 1.059 1.06 1.059l5.731.001c.458 0 .479.021.481.483.003.887.002 1.775 0 2.662-.001.477-.024.498-.504.499h-23.331c-.55 0-.552-.001-.552-.561v-10.871c0-.559.004-.563.55-.563zm23.285 34.417H317.559c-.572 0-.574-.002-.574-.579-.001-1.997-.001-3.994.001-5.991 0-.464.023-.486.478-.487h23.41c.478 0 .499.02.499.503.002 1.997.001 3.994 0 5.991.002.558-.003.563-.551.563z" style="fill:#fff"/><path d="M327.418 417.053h1.757v1.054h-1.757z" style="fill:#fff"/><path d="M325.662 418.107h1.757v1.054h-1.757z" style="fill:#fff"/><path d="M327.418 419.161h1.757v1.054h-1.757z" style="fill:#fff"/><path d="M325.662 420.215h1.757v1.054h-1.757z" style="fill:#fff"/><path d="M327.418 421.269h1.757v1.054h-1.757z" style="fill:#fff"/><path d="M325.662 422.323h1.757v1.054h-1.757z" style="fill:#fff"/><path d="M327.418 423.378h1.757v1.054h-1.757z" style="fill:#fff"/><path d="M325.662 424.432h1.757v1.054h-1.757z" style="fill:#fff"/><path d="M327.418 425.486h1.757v1.054h-1.757z" style="fill:#fff"/><path d="M325.662 426.54h1.757v1.054h-1.757z" style="fill:#fff"/><path d="M327.418 427.594h1.757v1.054h-1.757z" style="fill:#fff"/><path d="M325.662 428.648h1.757v1.054h-1.757z" style="fill:#fff"/><path d="M187.637 431.299c-.006-1.224-.959-2.121-2.189-2.14-.924-.014-.832.12-.834-.867-.003-1.097-.007-2.194.003-3.292a1.389 1.389 0 0 0-.362-.976c-2.342-2.668-4.678-5.342-7.019-8.011-.12-.137-.275-.244-.414-.366h-18.641c-.794.293-1.14.868-1.138 1.709.01 3.748.004 7.496.004 11.243 0 .556-.003.589-.55.551-1.497-.102-2.516.986-2.497 2.492.044 3.476.013 6.953.014 10.429.001 1.58.867 2.443 2.45 2.449.582.002.582.002.582.6 0 2.219-.001 4.438.001 6.657.001 1.192.58 1.771 1.768 1.771h24.04c1.168 0 1.755-.583 1.757-1.745.002-2.256 0-4.512.001-6.768 0-.512.002-.511.52-.515.271-.002.541.008.809-.058.996-.246 1.69-1.044 1.694-2.069.016-3.697.019-7.396.001-11.094zm-28.45-14.137h16.01c.548 0 .554.007.554.561.001 2.243-.001 4.486.001 6.73.001.811.249 1.059 1.06 1.059l5.731.001c.458 0 .479.021.481.483.003.887.002 1.775 0 2.662-.001.477-.024.498-.504.499h-23.331c-.55 0-.552-.001-.552-.561v-10.871c-.001-.559.003-.563.55-.563zm23.285 34.417H159.209c-.572 0-.574-.002-.574-.579-.001-1.997-.001-3.994.001-5.991 0-.464.023-.486.478-.487h23.41c.478 0 .499.02.499.503.002 1.997.001 3.994 0 5.991.001.558-.004.563-.551.563z" style="fill:#fff"/><path d="M159.779 440.669v-7.897h2.779c.375 0 .726.061 1.053.182.327.121.612.292.855.513a2.392 2.392 0 0 1 .783 1.798c0 .375-.07.715-.21 1.02-.14.305-.331.568-.573.789a2.593 2.593 0 0 1-.855.513 3.01 3.01 0 0 1-1.053.182h-1.29v2.901h-1.489zm2.801-4.313c.39 0 .684-.111.882-.331a1.1 1.1 0 0 0 .298-.761c0-.14-.024-.276-.072-.408a.928.928 0 0 0-.221-.347 1.09 1.09 0 0 0-.37-.237 1.387 1.387 0 0 0-.518-.089h-1.312v2.173h1.313z" style="fill:#fff"/><path d="M166.308 432.771h1.731l3.177 5.294h.088l-.088-1.522v-3.772h1.478v7.897h-1.566l-3.353-5.592h-.088l.088 1.522v4.07h-1.467v-7.897z" style="fill:#fff"/><path d="M177.922 436.334h3.872a3.368 3.368 0 0 1 .077.695c0 .507-.077.985-.231 1.434a3.31 3.31 0 0 1-.728 1.202 3.646 3.646 0 0 1-1.268.871c-.493.206-1.055.309-1.688.309a4.272 4.272 0 0 1-1.622-.309 4.033 4.033 0 0 1-2.217-2.167 4.058 4.058 0 0 1-.331-1.649c0-.595.11-1.145.331-1.649a4.12 4.12 0 0 1 .894-1.307 4.05 4.05 0 0 1 1.323-.86 4.269 4.269 0 0 1 1.622-.309c.64 0 1.211.11 1.715.331a3.86 3.86 0 0 1 1.296.915l-1.025 1.004a2.732 2.732 0 0 0-.861-.623c-.316-.143-.695-.215-1.136-.215a2.76 2.76 0 0 0-1.026.193 2.583 2.583 0 0 0-.85.546 2.6 2.6 0 0 0-.579.855 2.823 2.823 0 0 0-.215 1.119c0 .412.072.785.215 1.12a2.552 2.552 0 0 0 1.439 1.401 2.77 2.77 0 0 0 1.037.193c.419 0 .773-.061 1.064-.182.29-.121.538-.278.744-.469.148-.132.275-.3.381-.502.106-.202.189-.428.248-.678h-2.482v-1.269z" style="fill:#fff"/><path d="M224.019 431.299c-.006-1.224-.959-2.121-2.189-2.14-.924-.014-.832.12-.834-.867-.003-1.097-.007-2.194.003-3.292a1.389 1.389 0 0 0-.362-.976c-2.342-2.668-4.678-5.342-7.019-8.011-.12-.137-.275-.244-.414-.366h-18.641c-.794.293-1.14.868-1.138 1.709.01 3.748.004 7.496.004 11.243 0 .556-.003.589-.55.551-1.497-.102-2.516.986-2.497 2.492.044 3.476.013 6.953.014 10.429.001 1.58.867 2.443 2.45 2.449.582.002.582.002.582.6 0 2.219-.001 4.438.001 6.657.001 1.192.58 1.771 1.768 1.771h24.04c1.168 0 1.755-.583 1.757-1.745.002-2.256 0-4.512.001-6.768 0-.512.002-.511.52-.515.271-.002.541.008.809-.058.997-.246 1.69-1.044 1.694-2.069.016-3.697.018-7.396.001-11.094zm-28.451-14.137h16.01c.548 0 .554.007.554.561.001 2.243-.001 4.486.001 6.73.001.811.249 1.059 1.06 1.059l5.731.001c.458 0 .479.021.481.483.003.887.002 1.775 0 2.662-.001.477-.024.498-.504.499H195.57c-.55 0-.552-.001-.552-.561v-10.871c0-.559.004-.563.55-.563zm23.286 34.417H195.591c-.572 0-.574-.002-.574-.579-.001-1.997-.001-3.994.001-5.991 0-.464.023-.486.478-.487h23.41c.478 0 .499.02.499.503.002 1.997.001 3.994 0 5.991.001.558-.004.563-.551.563z" style="fill:#fff"/><path d="M205.111 432.771h1.699l2.967 7.897h-1.644l-.651-1.886h-3.044l-.651 1.886h-1.643l2.967-7.897zm1.886 4.644-.706-1.974-.287-.96h-.088l-.287.96-.706 1.974h2.074z" style="fill:#fff"/><path d="M211.331 434.536a.917.917 0 0 1-.657-.271.903.903 0 0 1-.27-.656.903.903 0 0 1 .27-.656.909.909 0 0 1 .298-.198.913.913 0 0 1 .359-.072c.257 0 .478.09.662.27.184.181.276.399.276.656s-.092.476-.276.656a.909.909 0 0 1-.662.271zm-.716 6.133v-5.404h1.445v5.404h-1.445z" style="fill:#fff"/><path d="M261.044 431.299c-.006-1.224-.959-2.121-2.189-2.14-.924-.014-.832.12-.834-.867-.003-1.097-.007-2.194.003-3.292a1.389 1.389 0 0 0-.362-.976c-2.342-2.668-4.678-5.342-7.019-8.011-.12-.137-.275-.244-.414-.366h-18.641c-.794.293-1.14.868-1.138 1.709.01 3.748.004 7.496.004 11.243 0 .556-.003.589-.55.551-1.497-.102-2.516.986-2.497 2.492.044 3.476.013 6.953.014 10.429.001 1.58.867 2.443 2.45 2.449.582.002.582.002.582.6 0 2.219-.001 4.438.001 6.657.001 1.192.58 1.771 1.768 1.771h24.04c1.168 0 1.755-.583 1.757-1.745.002-2.256 0-4.512.001-6.768 0-.512.002-.511.52-.515.271-.002.541.008.809-.058.996-.246 1.69-1.044 1.694-2.069.016-3.697.018-7.396.001-11.094zm-28.451-14.137h16.01c.548 0 .554.007.554.561.001 2.243-.001 4.486.001 6.73.001.811.249 1.059 1.06 1.059l5.731.001c.458 0 .479.021.481.483.003.887.002 1.775 0 2.662-.001.477-.024.498-.504.499h-23.331c-.55 0-.552-.001-.552-.561v-10.871c-.001-.559.004-.563.55-.563zm23.285 34.417H232.615c-.572 0-.574-.002-.574-.579-.001-1.997-.001-3.994.001-5.991 0-.464.023-.486.478-.487h23.41c.478 0 .499.02.499.503.002 1.997.001 3.994 0 5.991.002.558-.003.563-.551.563z" style="fill:#fff"/><path d="M236.361 440.845c-.338 0-.662-.048-.971-.143a2.787 2.787 0 0 1-.849-.43 3.01 3.01 0 0 1-.673-.7 3.385 3.385 0 0 1-.452-.965l1.401-.551c.103.397.283.726.54.987.257.261.596.392 1.015.392.154 0 .303-.02.447-.061.143-.04.272-.099.386-.176s.204-.175.27-.292a.822.822 0 0 0 .099-.408.99.99 0 0 0-.077-.397.941.941 0 0 0-.259-.331 2.31 2.31 0 0 0-.475-.298 7.293 7.293 0 0 0-.722-.298l-.485-.176a3.669 3.669 0 0 1-.645-.298 2.853 2.853 0 0 1-.59-.452 2.213 2.213 0 0 1-.436-.623 1.858 1.858 0 0 1-.171-.81 2.069 2.069 0 0 1 .7-1.572c.224-.202.492-.36.805-.474s.66-.171 1.042-.171c.397 0 .74.053 1.031.16.291.107.537.243.739.408.202.165.366.348.491.546.125.199.217.386.276.563l-1.312.551a1.41 1.41 0 0 0-.402-.596c-.195-.176-.462-.265-.8-.265-.324 0-.592.075-.805.226a.694.694 0 0 0-.32.59c0 .235.103.436.309.601.206.165.533.325.982.48l.497.165c.316.111.605.237.866.381.261.143.485.314.673.513a2.1 2.1 0 0 1 .43.678c.1.254.149.546.149.877 0 .412-.083.767-.248 1.064a2.283 2.283 0 0 1-.634.734 2.754 2.754 0 0 1-.872.43 3.445 3.445 0 0 1-.95.141z" style="fill:#fff"/><path d="M239.516 432.771h1.61l1.633 4.754.287 1.015h.088l.309-1.015 1.699-4.754h1.61l-2.879 7.897h-1.566l-2.791-7.897z" style="fill:#fff"/><path d="M251.097 436.334h3.871a3.145 3.145 0 0 1 .078.695c0 .507-.078.985-.232 1.434a3.31 3.31 0 0 1-.728 1.202 3.636 3.636 0 0 1-1.268.871c-.493.206-1.055.309-1.688.309a4.263 4.263 0 0 1-1.621-.309 4.038 4.038 0 0 1-1.324-.86 4.075 4.075 0 0 1-1.225-2.956c0-.595.11-1.145.331-1.649a4.12 4.12 0 0 1 .894-1.307 4.043 4.043 0 0 1 1.324-.86 4.263 4.263 0 0 1 1.621-.309c.64 0 1.211.11 1.715.331a3.85 3.85 0 0 1 1.296.915l-1.026 1.004a2.72 2.72 0 0 0-.861-.623c-.316-.143-.694-.215-1.136-.215-.36 0-.702.065-1.026.193a2.58 2.58 0 0 0-.849.546c-.243.235-.436.52-.579.855a2.823 2.823 0 0 0-.215 1.119c0 .412.072.785.215 1.12.143.335.338.62.585.855.246.235.531.418.854.546.324.129.669.193 1.037.193.419 0 .774-.061 1.064-.182.29-.121.539-.278.745-.469.147-.132.274-.3.38-.502a2.83 2.83 0 0 0 .248-.678h-2.482v-1.269z" style="fill:#fff"/><path d="M297.3 431.299c-.006-1.224-.959-2.121-2.189-2.14-.924-.014-.832.12-.834-.867-.003-1.097-.007-2.194.003-3.292a1.389 1.389 0 0 0-.362-.976c-2.342-2.668-4.678-5.342-7.019-8.011-.12-.137-.275-.244-.414-.366h-18.641c-.794.293-1.14.868-1.138 1.709.01 3.748.004 7.496.004 11.243 0 .556-.003.589-.55.551-1.497-.102-2.516.986-2.497 2.492.044 3.476.013 6.953.014 10.429.001 1.58.867 2.443 2.45 2.449.582.002.582.002.582.6 0 2.219-.001 4.438.001 6.657.001 1.192.58 1.771 1.768 1.771h24.04c1.168 0 1.755-.583 1.757-1.745.002-2.256 0-4.512.001-6.768 0-.512.002-.511.52-.515.271-.002.541.008.809-.058.996-.246 1.69-1.044 1.694-2.069.016-3.697.019-7.396.001-11.094zm-28.45-14.137h16.01c.548 0 .554.007.554.561.001 2.243-.001 4.486.001 6.73.001.811.249 1.059 1.06 1.059l5.731.001c.458 0 .479.021.481.483.003.887.002 1.775 0 2.662-.001.477-.024.498-.504.499h-23.331c-.55 0-.552-.001-.552-.561v-10.871c-.001-.559.003-.563.55-.563zm23.285 34.417H268.872c-.572 0-.574-.002-.574-.579-.001-1.997-.001-3.994.001-5.991 0-.464.023-.486.478-.487h23.41c.478 0 .499.02.499.503v5.991c.001.558-.004.563-.551.563z" style="fill:#fff"/><path d="M272.966 434.183v1.831h3.165v1.412h-3.165v1.831h3.518v1.412h-5.007v-7.897h5.007v1.412h-3.518z" style="fill:#fff"/><path d="M277.852 440.669v-7.897h2.779c.375 0 .726.061 1.053.182.327.121.612.292.855.513a2.392 2.392 0 0 1 .783 1.798c0 .375-.07.715-.209 1.02-.14.305-.331.568-.574.789a2.593 2.593 0 0 1-.855.513 3.01 3.01 0 0 1-1.053.182h-1.29v2.901h-1.489zm2.801-4.313c.389 0 .684-.111.882-.331a1.1 1.1 0 0 0 .298-.761c0-.14-.024-.276-.072-.408a.928.928 0 0 0-.221-.347 1.08 1.08 0 0 0-.37-.237 1.387 1.387 0 0 0-.518-.089h-1.312v2.173h1.313z" style="fill:#fff"/><path d="M286.797 440.845c-.338 0-.662-.048-.971-.143a2.787 2.787 0 0 1-.849-.43 2.99 2.99 0 0 1-.673-.7 3.385 3.385 0 0 1-.452-.965l1.401-.551c.103.397.283.726.541.987.257.261.595.392 1.015.392.154 0 .303-.02.447-.061a1.32 1.32 0 0 0 .386-.176.822.822 0 0 0 .37-.7.99.99 0 0 0-.077-.397.941.941 0 0 0-.259-.331 2.3 2.3 0 0 0-.474-.298 7.322 7.322 0 0 0-.723-.298l-.485-.176a3.702 3.702 0 0 1-.645-.298 2.827 2.827 0 0 1-.59-.452 2.233 2.233 0 0 1-.436-.623 1.858 1.858 0 0 1-.171-.81 2.085 2.085 0 0 1 .7-1.572c.224-.202.493-.36.805-.474a3.02 3.02 0 0 1 1.042-.171c.397 0 .741.053 1.031.16.29.107.537.243.739.408a2.3 2.3 0 0 1 .491.546c.125.199.217.386.276.563l-1.312.551a1.404 1.404 0 0 0-.403-.596c-.195-.176-.462-.265-.799-.265-.324 0-.592.075-.805.226a.694.694 0 0 0-.32.59c0 .235.103.436.309.601.206.165.533.325.982.48l.496.165c.316.111.605.237.866.381.261.143.485.314.673.513a2.1 2.1 0 0 1 .43.678c.099.254.149.546.149.877 0 .412-.083.767-.248 1.064a2.283 2.283 0 0 1-.634.734 2.754 2.754 0 0 1-.872.43 3.463 3.463 0 0 1-.951.141z" style="fill:#fff"/><path d="m321.394 439.168 4.004-4.985h-3.827v-1.412h5.559v1.5l-3.96 4.985h4.004v1.412h-5.779v-1.5z" style="fill:#fff"/><path d="M328.409 432.771h1.489v7.897h-1.489v-7.897z" style="fill:#fff"/><path d="M331.486 440.669v-7.897h2.779c.375 0 .726.061 1.053.182.327.121.612.292.855.513s.434.483.574.789c.14.305.209.642.209 1.009 0 .375-.07.715-.209 1.02-.14.305-.331.568-.574.789a2.593 2.593 0 0 1-.855.513 3.01 3.01 0 0 1-1.053.182h-1.29v2.901h-1.489zm2.802-4.313c.389 0 .684-.111.882-.331a1.1 1.1 0 0 0 .298-.761c0-.14-.024-.276-.072-.408a.928.928 0 0 0-.221-.347 1.08 1.08 0 0 0-.37-.237 1.387 1.387 0 0 0-.518-.089h-1.312v2.173h1.313z" style="fill:#fff"/></g><g style="opacity:.61"><path d="M300.133 433.27h9.067v2.242h-9.067v-2.242zm0 3.866h9.067v2.243h-9.067v-2.243z" style="fill:#fff"/></g><g style="opacity:.61"><path d="M156.756 478.878h1.607c1.263 0 2.114.812 2.114 1.974 0 1.161-.851 1.973-2.114 1.973h-1.607v-3.947zm1.584 3.586c1.049 0 1.725-.665 1.725-1.612 0-.947-.677-1.613-1.725-1.613h-1.167v3.225h1.167z" style="fill:#fff"/><path d="M165.139 480.851c0-1.15.879-2.007 2.075-2.007 1.184 0 2.069.851 2.069 2.007 0 1.156-.885 2.007-2.069 2.007-1.195 0-2.075-.856-2.075-2.007zm3.727 0c0-.942-.705-1.635-1.652-1.635-.953 0-1.663.693-1.663 1.635 0 .941.71 1.635 1.663 1.635.948 0 1.652-.693 1.652-1.635z" style="fill:#fff"/><path d="m179.596 478.878-1.331 3.947h-.44l-1.156-3.366-1.161 3.366h-.434l-1.331-3.947h.429l1.139 3.394 1.178-3.394h.389l1.161 3.411 1.156-3.411h.401z" style="fill:#fff"/><path d="M187.731 478.878v3.947h-.344l-2.537-3.202v3.202h-.417v-3.947h.344l2.543 3.203v-3.203h.411z" style="fill:#fff"/><path d="M193.093 478.878h.417v3.586h2.21v.361h-2.627v-3.947z" style="fill:#fff"/><path d="M200.061 480.851c0-1.15.879-2.007 2.075-2.007 1.184 0 2.069.851 2.069 2.007 0 1.156-.885 2.007-2.069 2.007-1.195 0-2.075-.856-2.075-2.007zm3.727 0c0-.942-.705-1.635-1.652-1.635-.953 0-1.663.693-1.663 1.635 0 .941.71 1.635 1.663 1.635.947 0 1.652-.693 1.652-1.635z" style="fill:#fff"/><path d="M211.636 481.77h-2.199l-.474 1.054h-.434l1.804-3.947h.412l1.804 3.947h-.44l-.473-1.054zm-.152-.338-.947-2.12-.947 2.12h1.894z" style="fill:#fff"/><path d="M217.28 478.878h1.607c1.263 0 2.114.812 2.114 1.974 0 1.161-.851 1.973-2.114 1.973h-1.607v-3.947zm1.584 3.586c1.049 0 1.725-.665 1.725-1.612 0-.947-.677-1.613-1.725-1.613h-1.167v3.225h1.167z" style="fill:#fff"/><path d="M234.041 481.77h-2.199l-.474 1.054h-.434l1.804-3.947h.412l1.804 3.947h-.44l-.473-1.054zm-.152-.338-.947-2.12-.947 2.12h1.894z" style="fill:#fff"/><path d="M239.685 478.878h.417v3.586h2.21v.361h-2.627v-3.947z" style="fill:#fff"/><path d="M247.082 478.878h.417v3.586h2.21v.361h-2.627v-3.947z" style="fill:#fff"/><path d="M260.449 479.239v1.551h2.041v.361h-2.041v1.675h-.417v-3.947h2.706v.361h-2.289z" style="fill:#fff"/><path d="M267.678 478.878h.417v3.947h-.417v-3.947z" style="fill:#fff"/><path d="M273.456 478.878h.417v3.586h2.21v.361h-2.627v-3.947z" style="fill:#fff"/><path d="M283.644 482.464v.361h-2.791v-3.947h2.706v.361h-2.289v1.404h2.041v.355h-2.041v1.466h2.374z" style="fill:#fff"/><path d="M294.672 479.239v1.551h2.041v.361h-2.041v1.675h-.417v-3.947h2.706v.361h-2.289z" style="fill:#fff"/><path d="M301.5 480.851c0-1.15.879-2.007 2.075-2.007 1.184 0 2.069.851 2.069 2.007 0 1.156-.885 2.007-2.069 2.007-1.196 0-2.075-.856-2.075-2.007zm3.726 0c0-.942-.705-1.635-1.652-1.635-.953 0-1.663.693-1.663 1.635 0 .941.71 1.635 1.663 1.635.948 0 1.652-.693 1.652-1.635z" style="fill:#fff"/><path d="m313.351 482.825-.902-1.269a2.884 2.884 0 0 1-.316.017h-1.06v1.252h-.417v-3.947h1.477c1.004 0 1.613.507 1.613 1.353 0 .62-.327 1.054-.902 1.24l.964 1.353h-.457zm-.023-2.594c0-.632-.417-.992-1.207-.992h-1.048v1.979h1.048c.79 0 1.207-.367 1.207-.987z" style="fill:#fff"/><path d="M322.907 478.878v3.947h-.4v-3.158l-1.551 2.656h-.197l-1.551-2.639v3.14h-.4v-3.947h.344l1.714 2.926 1.697-2.926h.344z" style="fill:#fff"/><path d="M330.744 481.77h-2.199l-.473 1.054h-.434l1.804-3.947h.411l1.804 3.947h-.44l-.473-1.054zm-.152-.338-.947-2.12-.947 2.12h1.894z" style="fill:#fff"/><path d="M336.957 479.239h-1.387v-.361h3.192v.361h-1.387v3.586h-.417v-3.586z" style="fill:#fff"/><path d="m343.063 482.346.164-.321c.282.276.784.479 1.302.479.739 0 1.06-.31 1.06-.699 0-1.083-2.43-.417-2.43-1.877 0-.581.451-1.083 1.455-1.083.446 0 .908.13 1.224.35l-.141.333a2.03 2.03 0 0 0-1.083-.327c-.722 0-1.043.321-1.043.716 0 1.083 2.43.429 2.43 1.866 0 .581-.462 1.077-1.472 1.077-.592-.002-1.173-.21-1.466-.514z" style="fill:#fff"/></g><linearGradient id="a" x1="298.307" x2="298.307" y1="504.527" y2="793.339" gradientTransform="translate(0 -368)" gradientUnits="userSpaceOnUse"><stop offset="0" style="stop-color:#1ea74b"/><stop offset=".21" style="stop-color:#1ea74f"/><stop offset=".4" style="stop-color:#1da55a"/><stop offset=".59" style="stop-color:#1ca26d"/><stop offset=".77" style="stop-color:#1a9f87"/><stop offset=".95" style="stop-color:#189aa9"/><stop offset="1" style="stop-color:#1799b3"/></linearGradient><path d="M408.296 338.431c29.571-76.411-8.465-162.302-84.876-191.874s-162.302 8.465-191.874 84.876a149.376 149.376 0 0 0-9.932 53.499v2.144c12.302-72.46 81.038-121.106 153.499-108.804 72.46 12.302 121.106 81.038 108.804 153.499-5.982 35.214-25.959 66.591-55.305 87.02-3.386 2.37-6.885 4.515-10.497 6.546 8.916-3.047 17.494-6.998 25.621-11.625C418.567 385.382 469.921 315.969 475 236.06a204.132 204.132 0 0 1-66.704 102.371z" style="fill:url(#a)"/><linearGradient id="b" x1="226.354" x2="226.354" y1="789.84" y2="442.661" gradientTransform="translate(0 -368)" gradientUnits="userSpaceOnUse"><stop offset="0" style="stop-color:#1ea74b"/><stop offset=".06" style="stop-color:#1da557"/><stop offset=".23" style="stop-color:#1ba178"/><stop offset=".41" style="stop-color:#199d92"/><stop offset=".59" style="stop-color:#189ba4"/><stop offset=".79" style="stop-color:#1799af"/><stop offset="1" style="stop-color:#1799b3"/></linearGradient><path d="M250.734 74.661c-98.081 0-177.539 79.571-177.539 177.539 0 31.377 8.352 62.19 24.153 89.39C60.327 310.327 34.932 267.664 25 220.26c1.806 91.761 61.174 172.46 148.194 201.58-13.205-10.497-25.056-22.46-35.44-35.666-.113-.113-.113-.226-.226-.339-54.628-73.138-39.616-176.637 33.521-231.151s176.524-39.503 231.151 33.634c11.287 15.124 19.865 32.054 25.508 50-7.223-92.438-84.311-163.657-176.974-163.657z" style="fill:url(#b)"/><path d="M174.887 289.898c5.418.113 10.271 1.693 14.447 5.53 7.675 7.223 7.675 19.865 0 27.088-4.628 4.402-10.158 6.208-16.366 5.869-5.192-.226-9.819-2.144-13.657-5.982-7.449-7.675-6.772-20.316 1.354-27.427 3.838-3.272 8.917-5.078 14.222-5.078zm13.093 18.849c-.113-.79-.226-2.37-.564-3.95-.903-4.063-2.709-7.562-6.321-9.707-2.709-1.693-5.643-1.919-8.691-1.354-4.515.79-7.788 3.273-9.707 7.788-1.806 4.176-1.806 8.465-.677 12.867 1.58 6.208 5.305 9.819 10.948 10.497 4.176.451 8.014-.677 11.061-3.95 2.935-3.161 3.951-7.112 3.951-12.191z" style="fill:#116fa9"/><path d="m232.675 299.379-.339.677c-4.289 9.255-8.465 18.397-12.754 27.652-.226.564-.564.79-1.129.79-.677 0-.79-.339-1.016-.79-3.95-8.916-7.901-17.833-11.738-26.749a2.618 2.618 0 0 0-.564-.79c-.79 9.255-1.58 18.51-2.257 27.878h-4.289c.677-12.19 1.467-24.492 2.144-36.795h6.772c.564 0 .79.226 1.016.677 3.725 8.352 7.336 16.704 11.061 25.056.113.226.226.564.451.903.113-.339.226-.564.339-.903 3.725-8.352 7.562-16.591 11.287-24.944.226-.564.564-.79 1.242-.79h6.546l.677 36.795h-5.192c-.79-9.481-1.467-19.074-2.257-28.555.113-.112.113-.112 0-.112z" style="fill:#116fa9"/><path d="M305.474 299.041c-.564-.451-1.129-.903-1.693-1.467-3.499-2.935-7.675-3.837-12.077-3.612-2.483.113-4.74.79-6.885 2.032-3.16 1.919-4.853 4.966-5.756 8.578a22.065 22.065 0 0 0 0 10.158c1.354 5.53 5.079 8.804 10.497 9.481 3.047.339 6.095.113 9.142-.677.564-.113.79-.339.79-1.016-.226-4.176-.339-8.465-.451-12.641v-.79h6.772v.564c-.113 5.079-.339 10.158-.451 15.237 0 .451-.226.677-.564.903-3.047 1.467-6.208 2.144-9.368 2.483-3.837.339-7.562.226-11.287-.903-5.756-1.693-10.045-5.192-11.851-11.4-2.822-9.142 1.129-20.993 12.077-24.718 6.321-2.144 12.641-1.806 18.849.79 1.129.451 1.919 1.129 1.919 2.483s.339 2.709.564 4.063c-.227.226-.227.226-.227.452z" style="fill:#116fa9"/><path d="M345.655 328.499h-7.223c-.226 0-.451-.226-.564-.451l-2.37-5.756c-.226-.451-.451-.564-.903-.564h-14.786c-.451 0-.677.113-.903.564l-2.37 5.756c-.226.451-.451.677-.903.564h-4.853c.113-.339.226-.564.339-.79 5.192-11.851 10.497-23.815 15.688-35.666.226-.564.564-.79 1.129-.79 2.144 0 2.144 0 2.935 2.032 4.74 11.512 9.594 22.912 14.334 34.424.224 0 .337.338.45.677zm-11.851-10.61c-2.144-5.418-4.289-10.722-6.433-16.253-2.257 5.53-4.515 10.835-6.772 16.253h13.205z" style="fill:#116fa9"/><path d="M246.445 291.253h17.494c.564 0 .79.113.903.79 0 1.016.226 2.032.339 3.16H253.33c-.113 3.837-.113 7.562-.226 11.512 4.628-.226 9.255-.339 13.995-.564-.677 1.467-1.242 2.822-1.919 4.176-.113.113-.451.226-.677.226h-11.512c-.113 4.853-.339 9.594-.451 14.56 4.853-.339 9.594-.677 14.447-.903-.564 1.354-1.016 2.709-1.467 4.063 0 .113-.339.226-.451.226H247.123c-.227-12.415-.453-24.831-.678-37.246z" style="fill:#116fa9"/></svg>